<svg id="Layer_1" data-name="Layer 1" xmlns="http://www.w3.org/2000/svg" width="59.2248" height="58.4452" viewBox="0 0 59.2248 58.4452"><defs><style>.cls-1,.cls-4{fill:#ef7e3b;}.cls-1{fill-rule:evenodd;}.cls-2{opacity:0.3;}.cls-3{fill:#fff;}.cls-5{fill:none;stroke:#5f2281;stroke-linecap:round;stroke-linejoin:round;stroke-width:0.8239px;}</style></defs><path class="cls-1" d="M2.8425,32.1666l0,.0015.446.105,2.3766-10.09-.446-.1051-.0009.0038h0c-1.83-.4311-3.5648.2227-3.8547,1.4532L.0415,29.1456c-.29,1.23.9705,2.59,2.8008,3.021Z"/><path class="cls-1" d="M31.6636,7.2014l-1.1807,4.16,4.2829.3L34.2164,7.38A3.8367,3.8367,0,0,0,36.5852,4.026a3.5883,3.5883,0,0,0-3.1-4.0184,3.6286,3.6286,0,0,0-3.6661,3.5437A3.795,3.795,0,0,0,31.6636,7.2014Z"/><g class="cls-2"><path class="cls-3" d="M35.8515,4.15c.3944-.0066.5006-1.1466-.23-2.253A3.4651,3.4651,0,0,0,32.6961.5794c-.2845.1958,1.4807.5391,2.0817,1.4628C35.5062,2.88,35.4212,3.5231,35.8515,4.15Z"/></g><path class="cls-4" d="M31.6731,10.6486s21.8149.9727,24.1964,20.05S39.7951,49.0839,34.4726,49.1413c-2.4137.0259-7.2334.0123-11.7806-.01-9.6466-.048-17.3428-3.6654-19.231-13.1254a17.7387,17.7387,0,0,1-.3537-3.37C3.047,22.3809,10.7466,8.9585,31.6731,10.6486Z"/><path class="cls-3" d="M11.3812,32.9351l27.9406,1.9815A5.316,5.316,0,0,0,45.0007,29.99h0a5.3161,5.3161,0,0,0-4.9268-5.6788L12.1333,22.33a5.3161,5.3161,0,0,0-5.6789,4.9267h0A5.3162,5.3162,0,0,0,11.3812,32.9351Z"/><path class="cls-3" d="M4.7322,26.9513a4.27,4.27,0,0,0-.1074,1.011,6.1818,6.1818,0,0,0,.659,2.8307A6.6456,6.6456,0,0,0,8.65,33.876a18.5283,18.5283,0,0,0,5.9951,1.1381L30.4683,36.237l4.5739.3487c1.56.1,3.1444.2912,4.7907.2753A7.391,7.391,0,0,0,44.57,35.3594a7.0327,7.0327,0,0,0,2.4178-4.5029,6.9427,6.9427,0,0,0-1.2856-4.9432,7.5908,7.5908,0,0,0-4.0981-2.8214,13.0069,13.0069,0,0,0-2.415-.35L36.83,22.5249l-4.568-.4193-8.446-.77c-2.65-.1936-5.0947-.5914-7.36-.7257a23.3313,23.3313,0,0,0-3.2352.0092,12.3556,12.3556,0,0,0-2.8471.4964,9.1011,9.1011,0,0,0-3.954,2.3393,6.3812,6.3812,0,0,0-1.4755,2.5029,4.4452,4.4452,0,0,0-.1749.7383,1.426,1.426,0,0,0-.0365.2555c.0264.0058.062-.347.2764-.9726A6.5029,6.5029,0,0,1,6.5141,23.546a9.0435,9.0435,0,0,1,3.9133-2.2492,12.24,12.24,0,0,1,2.808-.4629,23.3544,23.3544,0,0,1,3.2049.0149c2.2461.1482,4.6931.56,7.3424.7656l8.4452.8016,4.5684.4309,2.36.2218a12.7585,12.7585,0,0,1,2.3588.3429,7.2644,7.2644,0,0,1,3.9147,2.7,6.61,6.61,0,0,1,1.222,4.7029A6.7019,6.7019,0,0,1,44.3548,35.1a7.0649,7.0649,0,0,1-4.5283,1.4295c-1.6062.0185-3.2011-.1685-4.76-.2661l-4.5748-.3373-15.829-1.1505A18.5213,18.5213,0,0,1,8.7248,33.702a6.5376,6.5376,0,0,1-3.3237-2.9691,6.2905,6.2905,0,0,1-.708-2.7712C4.68,27.2994,4.7523,26.9534,4.7322,26.9513Z"/><g class="cls-2"><path class="cls-3" d="M25.97,11.7568c-.0174.2486,1.974.53,5.131,1.0758a40.0423,40.0423,0,0,1,11.7432,3.6468,22.3469,22.3469,0,0,1,5.3466,3.9666,18.73,18.73,0,0,1,3.2374,4.3684c1.4615,2.7654,1.6117,4.8,1.9,4.7661.106-.0067.1935-.5187.1379-1.4486a12.2086,12.2086,0,0,0-.9536-3.8272,17.1181,17.1181,0,0,0-3.1876-4.9316,21.2831,21.2831,0,0,0-5.6885-4.3915,28.4019,28.4019,0,0,0-6.6887-2.457,37.9914,37.9914,0,0,0-5.6938-.88C27.9952,11.3951,25.9839,11.5391,25.97,11.7568Z"/></g><g class="cls-2"><path class="cls-3" d="M50.7862,39.4813c.3292.3221,1.4886-.35,2.2113-1.7427.7277-1.39.6148-2.7257.1623-2.8111-.4649-.0965-1.0542.873-1.6647,2.0279C50.8983,38.117,50.4409,39.1554,50.7862,39.4813Z"/></g><path class="cls-1" d="M55.6793,38.5746l0,.0016-.4581-.0072.1629-10.3654.4581.0072v.0039h0c1.88.0295,3.4021,1.0877,3.3823,2.3516L59.134,36.33c-.02,1.2639-1.5743,2.2739-3.4545,2.2443Z"/><path class="cls-3" d="M26.0925,47.5817a11.8149,11.8149,0,0,1-2.6532-4.6239,19.7806,19.7806,0,0,1-.6919-5.31,16.8113,16.8113,0,0,0,.0006-2.2456,2.0062,2.0062,0,0,0-.1089.5983c-.0455.3867-.1034.9465-.1444,1.6428a17.29,17.29,0,0,0,.6,5.41,11.0969,11.0969,0,0,0,2.8106,4.6931,10.61,10.61,0,0,0,1.2864,1.09,3.52,3.52,0,0,0,.51.3135h.026C27.7415,49.0885,27.0248,48.5861,26.0925,47.5817Z"/><path class="cls-3" d="M31.8757,10.68a6.4249,6.4249,0,0,0-1.4668.5162,9.0042,9.0042,0,0,0-3.6628,3.573,16.7116,16.7116,0,0,0-1.9291,4.7943c-.1553.644-.2609,1.1686-.3276,1.5326a1.9342,1.9342,0,0,0-.0692.5737,16.2488,16.2488,0,0,0,.6236-2.0422A19.0558,19.0558,0,0,1,27.03,14.9471,9.4408,9.4408,0,0,1,30.5166,11.41a9,9,0,0,1,1.754-.719l-.3237-.0234C31.9222,10.6719,31.9025,10.6749,31.8757,10.68Z"/><path class="cls-5" d="M18.3838,29.5052a2.1845,2.1845,0,0,0-.2149-1.43,3.3593,3.3593,0,0,0-5.8869-.51,2.1847,2.1847,0,0,0-.4577,1.372,7.0471,7.0471,0,0,1,.6533-1.2335,3.4082,3.4082,0,0,1,1.124-.9511,3.2535,3.2535,0,0,1,3.4071.2951,3.41,3.41,0,0,1,.9436,1.13A7.0424,7.0424,0,0,1,18.3838,29.5052Z"/><path class="cls-5" d="M37.6879,31.2248a2.1829,2.1829,0,0,0-.2149-1.43,3.3592,3.3592,0,0,0-5.8868-.51,2.1831,2.1831,0,0,0-.4577,1.372,7.0329,7.0329,0,0,1,.6532-1.2335,3.4086,3.4086,0,0,1,1.1241-.9511,3.2533,3.2533,0,0,1,3.407.2951,3.41,3.41,0,0,1,.9437,1.13A7.0342,7.0342,0,0,1,37.6879,31.2248Z"/><g class="cls-2"><path d="M9.8973,54.0946c2.2835-1.5818,4.0261-1.5234,6.9326-2.0734a53.8874,53.8874,0,0,1,8.8237-.7542c6.8143-.152,13.8485.1193,19.7162,2.5075a8.52,8.52,0,0,1,3.9577,2.78s-2.82,1.5314-8.6219,1.7614c-5.5461.22-17.151.0928-17.151.0928a27.35,27.35,0,0,1-9.654-1.8673C10.23,54.9654,9.8973,54.0946,9.8973,54.0946Z"/></g></svg>