<svg id="Layer_1" data-name="Layer 1" xmlns="http://www.w3.org/2000/svg" width="25.7931" height="26.5495" viewBox="0 0 25.7931 26.5495"><defs><style>.cls-1{fill:#ef7e3b;fill-rule:evenodd;}.cls-2{fill:#fff;}.cls-3{fill:none;stroke:#5f2281;stroke-linecap:round;stroke-linejoin:round;stroke-width:0.9476px;}</style></defs><path class="cls-1" d="M12.8966,23.8049,9.4473,22a.8841.8841,0,0,0-1.2493.8022v2.8661a.8817.8817,0,0,0,1.25.8l3.4488-1.8028,3.4487,1.8028a.8827.8827,0,0,0,1.25-.8V22.8024A.8842.8842,0,0,0,16.3459,22ZM1.2635,10.479h0V9.1817A2.682,2.682,0,0,1,3.9378,6.5075H11.54l.5663-2.4722a2.095,2.095,0,1,1,1.5807,0l.5663,2.4722h7.6022A2.6823,2.6823,0,0,1,24.53,9.1817V10.479a1.267,1.267,0,0,1,1.2634,1.2633v3.169A1.2671,1.2671,0,0,1,24.53,16.1747V17.472a2.6824,2.6824,0,0,1-2.6743,2.6742H3.9378A2.6822,2.6822,0,0,1,1.2635,17.472V16.1747h0A1.2671,1.2671,0,0,1,0,14.9113v-3.169A1.267,1.267,0,0,1,1.2635,10.479Z"/><rect class="cls-2" x="3.6034" y="8.8697" width="18.5862" height="8.9143"/><path class="cls-3" d="M7.4576,14.1157a1.5794,1.5794,0,0,1,3.1587,0"/><path class="cls-3" d="M15.1784,14.1157a1.5794,1.5794,0,0,1,3.1587,0"/></svg>